<?xml version="1.0" encoding="UTF-8"?>
<svg xmlns="http://www.w3.org/2000/svg"
	viewBox="0 0 100 100">
<rect x="5" y="5" width="90" height="90" fill="#ccc" />
<rect x="0" y="0" width="100" height="100" fill="transparent"
	stroke="black" stroke-width="0.1"/>
<g id="grid" stroke="grey" stroke-width="0.1" fill="transparent">
<line x1="0" x2="100" y1="10" y2="10" />
<line x1="0" x2="100" y1="20" y2="20" />
<line x1="0" x2="100" y1="30" y2="30" />
<line x1="0" x2="100" y1="40" y2="40" />
<line x1="0" x2="100" y1="50" y2="50" />
<line x1="0" x2="100" y1="60" y2="60" />
<line x1="0" x2="100" y1="70" y2="70" />
<line x1="0" x2="100" y1="80" y2="80" />
<line x1="0" x2="100" y1="90" y2="90" />
<line x1="10" x2="10" y1="0" y2="100" />
<line x1="20" x2="20" y1="0" y2="100" />
<line x1="30" x2="30" y1="0" y2="100" />
<line x1="40" x2="40" y1="0" y2="100" />
<line x1="50" x2="50" y1="0" y2="100" />
<line x1="60" x2="60" y1="0" y2="100" />
<line x1="70" x2="70" y1="0" y2="100" />
<line x1="80" x2="80" y1="0" y2="100" />
<line x1="90" x2="90" y1="0" y2="100" />
<circle cx="50" cy="50" r="45" />
</g>
<g stroke="black" stroke-width=".25" fill="transparent">

	<path fill="none" stroke="black" stroke-width="0.5" stroke-linecap="round" d=
	"M 25,25 c 8,12 12,33 12,40 M 15,30 c 20,-20 40,-10 45,10 s -20,30 -30,30 -10,-10 0,-15 25,0 35,25 c 10,-25 15,-30 25,-40" />

</g>
</svg>
