<?xml version="1.0" encoding="UTF-8"?>
<svg xmlns="http://www.w3.org/2000/svg" viewBox="0 0 100 100">
  <defs>
    <symbol id="key">
      <title>key</title>
      <path d=
        "M 47 42 l 0,50 l 18,0 l 0,-4 l -12,0 l 0,-4 l 6,0 l 0,-4 l -6,0 l 0,-4 l 9,0 l 0,-4 l -9,0 l 0,-30 a 18,18 0 1 0 -6,0 M 50,12 a 12,12 0 1 0 0,24 a 12,12 0 1 0 0,-24"
        fill-rule="evenodd"/>
    </symbol>
    <symbol id="keyhole">
      <title>keyhole</title>
      <path d=
      	"M 45,50 a 15,15 0 1 1 10,0 l 10,30 h-30 l 10,-30" />
    </symbol>
    <symbol id="compass">
      <title>compass</title>
      <g class="cardinal">
        <path d=
          "M 50,10 l 10,30 l -10,10 l -10,-10 l 10,-30 l 0,40 l -10,-10 l 10,-30"
          fill-rule="evenodd" class="north"/>
        <path d=
          "M 50,90 l -10,-30 l 10,-10 l 10,10 l -10,30 l 0,-40 l 10,10, l -10,30"
          fill-rule="evenodd" class="south"/>
        <path d=
          "M 10,50 l 30,-10 l 10,10 l -10,10 l -30,-10 l 40,0 l -10,10 l -30,-10"
          fill-rule="evenodd" class="west"/>
        <path d=
          "M 90,50 l -30,10 l -10,-10 l 10,-10 l 30,10 l -40,0 l 10,-10 l 30,10"
          fill-rule="evenodd" class="east"/>
      </g>
      <g class="intercardinal">
        <path d=
          "M 60,40 l -2,-6 l 10,-2 l -2,10 l -6,-2 l 8,-8 l -10,2 l 2,6"
          fill-rule="evenodd" class="northeast"/>
        <path d=
          "M 60,60 l 6,-2 l 2,10 l -10,-2, l 2,-6 l 6,-2 l 2,10 l -8,-8"
          fill-rule="evenodd" class="southeast"/>
        <path d=
          "M 40,60 l 2,6 l -10,2 l 2,-10 l 6,2 l -8,8 l 10,-2 l -2,-6"
          fill-rule="evenodd" class="southwest"/>
        <path d=
          "M 40,40 l -6,2 l -2,-10 l 10,2 l -2,6 l -6,2 l -2,-10, l 8,8"
          fill-rule="evenodd" class="northwest"/>
      </g>
    </symbol>
    <symbol id="stars">
      <title>stars</title>
      <path d=
        "M 70,25 Q 70,50 55,50 Q 70,50 70,75 Q 70,50 85,50 Q 70,50 70,25" />
      <path d=
        "M 23,17.5 Q 23,30 15.5,30 Q 23,30 23,42.5 Q 23,30 30.5,30 Q 23,30 23,17.5" />
      <path d=
        "M 40,65 Q 40,70 37,70 Q 40,70 40,75 Q 40,70 43,70 Q 40,70 40,65" />
    </symbol>
    <symbol id="sun">
      <title>sun</title>
      <circle cx="50" cy="50" r="20" class="body"/>
      <path d=
        "M 50,10 l -1,12 1,1 1,-1 -1,-12 M 90,50 l -12,1 -1,-1 1,-1 12,1 M 50,90 l -1,-12 1,-1 1,1 -1,12 M 10,50 l 12,-1 1,1 -1,1 -12,-1"
        class="major" />
      <g class="minor">
        <line x1="50" x2="50" y1="15" y2="20" transform="rotate(-30,50,50)" />
        <line x1="50" x2="50" y1="15" y2="20" transform="rotate(-60,50,50)" />
        <line x1="50" x2="50" y1="15" y2="20" transform="rotate(-120,50,50)" />
        <line x1="50" x2="50" y1="15" y2="20" transform="rotate(-150,50,50)" />
        <line x1="50" x2="50" y1="15" y2="20" transform="rotate(30,50,50)" />
        <line x1="50" x2="50" y1="15" y2="20" transform="rotate(60,50,50)" />
        <line x1="50" x2="50" y1="15" y2="20" transform="rotate(120,50,50)" />
        <line x1="50" x2="50" y1="15" y2="20" transform="rotate(150,50,50)" />
    	</g>
    </symbol>
    <symbol id="moon">
      <title>moon</title>
      <path d=
        "M 50,10 A 40,40 0 1,0 50,90 A 25,40 0 0,1 50,10"
        transform="translate(8,-3) rotate(-25,50,50)"/>
    </symbol>
    <symbol id="flame">
      <title>flame</title>
      <path d=
        "M 25,20 C 30,55 22,55 15,70 S 15,90 45,90 Q 22,85 38,60 C 42,54 42,50 38,44 Q 50,50 50,60 T 55,70 58,60 Q 74,85 55,90 C 105,90 68,65 75,35 Q 65,41 62,50 C 55,42 65,35 65,30 S 58,12 50,10 C 53,20 50,25 40,35 Q 40,27 25,20"/>
    </symbol>
    <symbol id="drop">
      <title>drop</title>
      <path d=
      	"M 50,5 C 55,35 80,35 80,65 A 30,30 0 0,1 20,65 C 20,35 45,35 50,5"/>
    </symbol>
    <symbol id="waves">
      <title>waves</title>
      <path d=
      	"M25,40 a 10,10 0,0,0 10,-10 a 10,10 0,0,0 10,10 a 10,10 0,0,0 10,-10 a 10,10 0,0,0 10,10 a 10,10 0,0,0 10,-10 a 10,10 0,0,0 10,10" />
      <path d=
      	"M15,55 a 10,10 0,0,0 10,-10 a 10,10 0,0,0 10,10 a 10,10 0,0,0 10,-10 a 10,10 0,0,0 10,10 a 10,10 0,0,0 10,-10 a 10,10 0,0,0 10,10" />
      <path d=
      	"M20,70 a 10,10 0,0,0 10,-10 a 10,10 0,0,0 10,10 a 10,10 0,0,0 10,-10 a 10,10 0,0,0 10,10 a 10,10 0,0,0 10,-10 a 10,10 0,0,0 10,10" />
    </symbol>
    <symbol id="tree">
      <title>tree</title>
      <path class="trunk" d=
      	"M 42,80 c 3,-2 3,-4 3,-5 1,-25 1,-32 -5,-35 l 2,-2 c 5,3 6,3 8,10 2,-7 3,-7 8,-10 l 2,2 c -6,5 -6,8 -5 35 1,3 1,3 3,5 z" />
      <path class="canopy" d=
      	"M 40,20 q 10,-10 20,0 6,0 10,5 4,1 5,5 5,5 0,10 0,5 -5,6 -3,5 -10,2 -5,-1 -5,-3 -2,-1 -3,-3 -2,2 -4,0 -1,2 -3,3 0,2 -5,3 -6,3 -10,-2 -5,-2 -5,-6 -5,-5 0,-10 1,-4 5,-5 3,-5 10,-5" />
    </symbol>
    <symbol id="feather">
      <title>feather</title>
      <path d=
        "M 31,75 Q 65,55 76,28 Q 57,55 28,72 Q 24,70 27,65 T 73,23 Q 75,21 82,20 C 85,33 45,80 31,75"
        class="vane"/>
      <path d=
        "M 20,80 Q 60,60 75,30 Q 58,58 15,80 Z"
        class="shaft" />
    </symbol>
    <symbol id="tornado">
      <title>tornado</title>
      <ellipse cx="54" cy="90" rx="8" ry="3" />
      <ellipse cx="56" cy="86" rx="10" ry="4" />
      <ellipse cx="58" cy="81" rx="12" ry="5" />
      <ellipse cx="59" cy="75" rx="15" ry="6" />
      <ellipse cx="60" cy="69" rx="18" ry="7" />
      <ellipse cx="60" cy="62" rx="22" ry="8" />
      <ellipse cx="59" cy="54" rx="27" ry="10" />
      <ellipse cx="57" cy="45" rx="32" ry="11" />
      <ellipse cx="54" cy="35" rx="38" ry="12" />
      <ellipse cx="50" cy="25" rx="44" ry="13" />
    </symbol>
    <symbol id="coin">
      <title>coin</title>
      <ellipse cx="50" cy="50" rx="40" ry="30" class="coinface"/>
      <path d=
        "M 10,50 v 5 A 40,30 0 1 0 90,55 v -5 A 40,30 0 1 1 10,50"
        class="coinedge"/>
    </symbol>
    <symbol id="coinstack">
      <title>coin stack</title>
      <ellipse cx="50" cy="25" rx="20" ry="10" class="coinface" />
      <path d=
      	"M 30,25 v 5 A 20,10 0 1 0 70,30 v -5 A 20,10 0 1 1 30,25"
      	class="coinedge" />
      <path d=
      	"M 30,30 v 5 A 20,10 0 1 0 70,35 v -5 A 20,10 0 1 1 30,30"
      	class="coinedge" />
      <path d=
      	"M 30,35 v 5 A 20,10 0 1 0 70,40 v -5 A 20,10 0 1 1 30,35"
      	class="coinedge" />
      <path d=
      	"M 30,40 v 5 A 20,10 0 1 0 70,45 v -5 A 20,10 0 1 1 30,40"
      	class="coinedge" />
      <path d=
      	"M 30,45 v 5 A 20,10 0 1 0 70,50 v -5 A 20,10 0 1 1 30,45"
      	class="coinedge" />
      <path d=
      	"M 30,50 v 5 A 20,10 0 1 0 70,55 v -5 A 20,10 0 1 1 30,50"
      	class="coinedge" />
      <path d=
      	"M 30,55 v 5 A 20,10 0 1 0 70,60 v -5 A 20,10 0 1 1 30,55"
      	class="coinedge" />
      <path d=
      	"M 30,60 v 5 A 20,10 0 1 0 70,65 v -5 A 20,10 0 1 1 30,60"
      	class="coinedge" />
      <path d=
      	"M 30,65 v 5 A 20,10 0 1 0 70,70 v -5 A 20,10 0 1 1 30,65"
      	class="coinedge" />
      <path d=
      	"M 30,70 v 5 A 20,10 0 1 0 70,75 v -5 A 20,10 0 1 1 30,70"
      	class="coinedge" />
    </symbol>
    <symbol id="chest">
      <title>chest</title>
      <rect x="35" y="40" width="45" height="35"/>
      <path d=
      	"M 35,75 l -10,-10 v-35 l 10,10, v35"/>
      <path d=
      	"M 35,40 q 0,-20 -5,-20 T 25,30 z"/>
      <path d=
      	"M 80,40 q 0,-20 -5,-20 h-45 q 5,0 5,20 z"/>
    </symbol>
    <symbol id="crown">
      <title>crown</title>
      <path d=
        "M25,70 A25,5 0 1 0 75,70 Q 70,55 80,35 Q 60,55 50,25 Q 40,55 20,35 Q 30,50 25,70" />
      <circle cx="50" cy="25" r="3" />
      <circle cx="80" cy="35" r="3" />
      <circle cx="20" cy="35" r="3" />
      <circle cx="35" cy="58" r="2" />
      <path d="M 50,60 m0,-6 l-3,6 l3,6 l3,-6 l-3,-6" />
      <circle cx="65" cy="58" r="2" />
    </symbol>
    <symbol id="gem">
      <title>gem</title>
      <g class="top">
        <polygon class="1" points="20,10 30,30 10,30"/>
        <polygon class="2" points="20,10 30,30 40,10"/>
        <polygon class="3" points="40,10 50,30 30,30"/>
        <polygon class="4" points="40,10 50,30 60,10"/>
        <polygon class="5" points="60,10 70,30 50,30"/>
        <polygon class="top6" points="60,10 70,30 80,10"/>
        <polygon class="top7" points="80,10 90,30 70,30"/>
      </g>
      <g class="bottom">
        <polygon class="1" points="10,30 30,30 50,80"/>
        <polygon class="2" points="30,30 50,30 50,80"/>
        <polygon class="3" points="50,30 70,30 50,80"/>
        <polygon class="4" points="70,30 90,30 50,80"/>
      </g>
    </symbol>
    <symbol id="cube">
      <title>cube</title>
      <path d=
      	"M20,30 l30,-10 l30,10 l-30,10 z" class="topface"/>
      <path d=
      	"M20,30 l30,10 v40 l-30,-10 z" class="leftface"/>
      <path d=
      	"M50,40 l30,-10 v40 l-30,10 z" class="rightface"/>
    </symbol>
    <symbol id="crystal">
      <title>crystal</title>
      <path d=
      	"M62,26 h12 l-8,8 z" />
      <path d=
      	"M74,26 v12 l-8,-4 z" />
      <path d=
      	"M66,34 l8,4 l-36,36 l-8,-4 z" />
      <path d=
      	"M62,26 l4,8 l-36,36 l-4,-8 z" />
      <path d=
      	"M26,62 l4,8 l-4,4 z" />
      <path d=
      	"M30,70 l8,4 h-12 z" />
    </symbol>
    <symbol id="sword">
      <title>sword</title>
      <path d=
        "M 47,70 C 47,15 47,15 50,5 C 53,15 53,15 53,70z"
        class="blade"/>
      <path d=
        "M 49.5,70 q 0.25,-45 0.5,-50 q 0.25,5 0.5,50 z M 50,20 v-15"
        class="fuller" />
      <path d=
        "M 53,70 l 10,-1 v 4 l -10,-1 h -6 l -10,1 v -4 l 10,1 z"
        class="guard"/>
      <path d=
        "M 53,72 q 0.5,7 -1,15 h -4 q -1.5,-8 -1,-15 z"
        class="grip"/>
      <circle cx="50" cy="90" r="3.5" class="pommel"/>
    </symbol>
    <symbol id="shield">
      <title>shield</title>
      <path d=
        "M 10,10 Q 30,20 50,10 Q 70,20 90,10 C 90,40 90,90 50,90 C 10,90 10,40 10,10"/>
    </symbol>
    <symbol id="staff">
      <title>staff</title>
      <path d=
      	"M 54,44 l -30,30 a 1,1 0,1,0 2,2 l 30,-30 c 5,-5 5,-2 8,-3 S 78,30 70,25 S 60,22 55,25 S 51,30 51,32 a 1,1 0,1,0 2,0 C 53,30 53,28 55,27 S 60,23 62,24 S 72,28 71,30 S 69,38 63,40 S 59,38 56,40 S 58,40 54,44" />
    </symbol>
    <symbol id="dagger">
      <title>dagger</title>
      <path d=
      	"M40,48 l -10,-10 a 2.5,2.5 0 0 1 5,-5 l 10,10 z" />
      <ellipse cx="42.5" cy="45.5" rx="8" ry="3" transform="rotate(-45 42.5 45)" />
      <path d=
      	"M 40,48 q 22,25 36,30 q -6,-4 -6,-10 q -6,-8 -25,-25 z" />
      <path d=
      	"M40,48 q 22,25 36,30 q -24,-16 -34,-32 z" />
    </symbol>
    <symbol id="wand">
      <title>wand</title>
      <path d="
      	M 40,58 C 20,70 30,80 42,60 z" />
      <path d="
      	M40,58 Q 100,0 42,60 z" />
    </symbol>
    <symbol id="candle">
      <title>candle</title>
      <path d=
      	"M 40,40 v 30 a 10,5 0 1 0 20,0 v -30 a 10,5 0 1 1 -20,0"
      	class="shaft" />
      <path d=
      	"M 39,40 a 11,5 0 1 1 22,0 c 0,2 -1,2 0,8 s -4,3 -4,0 s -1,-3 -4,-2 s 0,3 0,10 s -5,3 -4,0 s 2,-5 -1,-9 s -4,4 -4,5 s -2,4 -3,4 s -2,2 -2,1 z M 59,40 a 9,4 0 1 1 -18,0"
      	class="melt" fill-rule="nonzero" />
      <path d=
      	"M 49.5,40 v -8	a 0.5,0.25 0 1 1 1,0 v 8 a 0.5,0.25 0 1 1 -1,0"
      	class="wick" />
      <path d=
      	"M 50,22 c -3,6 -4,12 -1,14 q -2,-2 1,-6 q 3,4 1,6 c 3,-3 2,-5 -1,-14"
      	class="flame" />
    </symbol>
    <symbol id="roundbot">
      <title>round bottle</title>
      <!--bottle-->
      <path d=
      	"M55,30.5 a 30,30 0 1 1 -10 0 v -10 a 1,1 0 0 1 0,-2 h 10 a 1,1 0 0 1 0,2 v 10" />
      <!--stopper-->
      <g class="stopper">
        <path d=
        	"M46,20 h8 l1,-8 h-10 l1,8" />
        <circle cx="48" cy="14" r=".75"/>
        <circle cx="53" cy="13" r=".5"/>
        <circle cx="51" cy="16" r=".5"/>
        <circle cx="47" cy="17" r=".5"/>
      </g>
    </symbol>
    <symbol id="tribot">
      <title>triangular bottle</title>
      <!--bottle-->
      <path d=
      	"M55,30.5 l 20,50 q 2,5 -2,5 h-46 q -4,0 -2,-5 l20,-50 v -10 a 1,1 0 0 1 0,-2 h 10 a 1,1 0 0 1 0,2 v 10" />
      <!--stopper-->
      <g class="stopper">
        <path d=
        	"M46,20 h8 l1,-8 h-10 l1,8" />
        <circle cx="48" cy="14" r=".75"/>
        <circle cx="53" cy="13" r=".5"/>
        <circle cx="51" cy="16" r=".5"/>
        <circle cx="47" cy="17" r=".5"/>
      </g>
    </symbol>
    <symbol id="rectbot">
      <title>rectangular bottle</title>
      <path d=
      	"M55,30.5 a 1,1 0 0 0 1,1 h 8 a 1,1 0 0 1 1,1 v 50 a 1,1 0 0 1 -1,1 h-28 a 1,1 0 0 1 -1,-1 v-50 a 1,1 0 0 1 1,-1 h 8 a 1,1 0 0 0 1,-1 v -10 a 1,1 0 0 1 0,-2 h 10 a 1,1 0 0 1 0,2 v 10" />
      <!--stopper-->
      <g class="stopper">
        <path d=
        	"M46,20 h8 l1,-8 h-10 l1,8" />
        <circle cx="48" cy="14" r=".75"/>
        <circle cx="53" cy="13" r=".5"/>
        <circle cx="51" cy="16" r=".5"/>
        <circle cx="47" cy="17" r=".5"/>
      </g>
    </symbol>
    <symbol id="heart">
      <title>heart</title>
      <path d=
      	"M20,35 a 15,15 0 0 1 30,0 a 15,15 0 0 1 30,0 c 0,15 -20,25 -30,45 c -10,-20 -30,-30 -30,-45" />
    </symbol>
    <symbol id="build">
      <title>build</title>
      <rect x="5" y="5" width="90" height="90" fill="#ccc" />
      <rect x="0" y="0" width="100" height="100" fill="transparent"
      	stroke="black" stroke-width="0.1"/>
      <g class="grid" stroke="grey" stroke-width="0.1" fill="transparent">
        <line x1="0" x2="100" y1="10" y2="10" />
        <line x1="0" x2="100" y1="20" y2="20" />
        <line x1="0" x2="100" y1="30" y2="30" />
        <line x1="0" x2="100" y1="40" y2="40" />
        <line x1="0" x2="100" y1="50" y2="50" />
        <line x1="0" x2="100" y1="60" y2="60" />
        <line x1="0" x2="100" y1="70" y2="70" />
        <line x1="0" x2="100" y1="80" y2="80" />
        <line x1="0" x2="100" y1="90" y2="90" />
        <line x1="10" x2="10" y1="0" y2="100" />
        <line x1="20" x2="20" y1="0" y2="100" />
        <line x1="30" x2="30" y1="0" y2="100" />
        <line x1="40" x2="40" y1="0" y2="100" />
        <line x1="50" x2="50" y1="0" y2="100" />
        <line x1="60" x2="60" y1="0" y2="100" />
        <line x1="70" x2="70" y1="0" y2="100" />
        <line x1="80" x2="80" y1="0" y2="100" />
        <line x1="90" x2="90" y1="0" y2="100" />
        <circle cx="50" cy="50" r="45" />
      </g>
    </symbol>
    <symbol id="initials">
      <title>DVmark</title>
      <path fill="none" stroke="black" stroke-width="0.5" stroke-linecap="round" d=
    	   "M 25,25 c 8,12 12,33 12,40 M 15,30 c 20,-20 40,-10 45,10 s -20,30 -30,30 -10,-10 0,-15 25,0 35,25 c 10,-25 15,-30 25,-40" />
    </symbol>
  </defs>
</svg>
